<?xml version="1.0" standalone="no"?>
<!DOCTYPE svg PUBLIC "-//W3C//DTD SVG 20010904//EN"
 "http://www.w3.org/TR/2001/REC-SVG-20010904/DTD/svg10.dtd">
<svg version="1.0" xmlns="http://www.w3.org/2000/svg"
 width="500.000000pt" height="500.000000pt" viewBox="0 0 500.000000 500.000000"
 preserveAspectRatio="xMidYMid meet">

<g transform="translate(0.000000,500.000000) scale(0.100000,-0.100000)"
fill="#000000" stroke="none">
<path d="M2637 3256 c-10 -25 21 -46 66 -46 l42 0 -120 -121 -120 -120 -66 70
c-39 43 -74 71 -86 71 -14 0 -46 -37 -112 -130 -92 -129 -105 -162 -66 -168
16 -2 38 21 94 100 41 57 77 107 81 111 4 4 38 -24 75 -62 38 -39 73 -71 78
-71 6 0 73 62 149 137 l138 137 0 -40 c0 -52 22 -83 47 -68 15 10 18 25 18
110 l0 99 -106 3 c-87 2 -108 0 -112 -12z"/>
<path d="M2717 2932 c-15 -16 -17 -47 -17 -225 l0 -207 110 0 110 0 0 203 c0
252 2 247 -109 247 -63 0 -81 -4 -94 -18z"/>
<path d="M2407 2802 c-14 -15 -17 -42 -17 -160 l0 -142 110 0 110 0 0 144 c0
177 1 176 -109 176 -63 0 -81 -4 -94 -18z"/>
<path d="M2096 2668 c-11 -15 -16 -46 -16 -95 l0 -73 116 0 116 0 -3 78 c-5
106 -11 112 -115 112 -74 0 -84 -2 -98 -22z"/>
<path d="M2020 2404 c0 -26 8 -43 29 -65 l29 -29 420 0 420 0 31 26 c25 21 31
33 31 65 l0 39 -480 0 -480 0 0 -36z"/>
</g>
</svg>
